/* XPM */
static char *_fadf920c65e40eaf4c5600d3d44edfenUFvo8K05XBte1AV[] = {
/* columns rows colors chars-per-pixel */
"16 16 10 1 ",
"  c None",
". c #A00A0A",
"X c #A00E0E",
"o c #A00F0F",
"O c #A01010",
"+ c #A01111",
"@ c #A01212",
"# c #A01313",
"$ c #A01414",
"% c #A01515",
/* pixels */
"                ",
"        .       ",
"  $$###$#$$$$#  ",
"  $##      X$#  ",
"  $X        #$  ",
"  $   $     ##  ",
"  #   $     $#  ",
"  #   $$$   $#  ",
"  #   $$$$  $#  ",
"  #   $  $  $#  ",
"  $   $$$$  $$  ",
"  $X        #$  ",
"  $$#$$$$$##$#  ",
"  ##$$#####$#   ",
"                ",
"                "
};
