/* XPM */
static char *_d49e8592f7f4edad60095ec89128cc7VQgqacAsDMKHRJ0F[] = {
/* columns rows colors chars-per-pixel */
"64 64 31 1 ",
"  c None",
". c #9F0808",
"X c #9F0909",
"o c #9F0A0A",
"O c #9F0B0B",
"+ c #9F0E0E",
"@ c #9F0F0F",
"# c #9F1010",
"$ c #9F1111",
"% c #9F1212",
"& c #9F1313",
"* c #9F1414",
"= c #A00808",
"- c #A00909",
"; c #A00A0A",
": c #A10A0A",
"> c #A00B0B",
", c #A00C0C",
"< c #A00D0D",
"1 c #A00E0E",
"2 c #A00F0F",
"3 c #A01010",
"4 c #A11010",
"5 c #A01111",
"6 c #A01212",
"7 c #A01313",
"8 c #A11313",
"9 c #A01414",
"0 c #A11414",
"q c #A01515",
"w c #A11515",
/* pixels */
"                               :o                               ",
"                             ::oo:2                             ",
"                            o2    :o                            ",
"                            :      ::                           ",
"                           ::       o                           ",
"                           :o:o::o:::                           ",
"                             o    o                             ",
"                             o    :                             ",
"         7777777777777777727277977277277777777777777777         ",
"         99979779999999979999979999799779999999977799999        ",
"         99999999999999979997999999999999999999999999979        ",
"         99999999999999999999999999999999999999799999977        ",
"        799999997779999999999999999999999999997799999992        ",
"        299999997779000090009999999909000000087799999997        ",
"        779999   :                            :    9999#        ",
"         79999    :                          ::    9999*        ",
"         99997   :                            :o  779999        ",
"         99972: :                              :: 279999        ",
"         99997::                                ::279999        ",
"         99990                                     99999        ",
"         99990                                     99999        ",
"         99990                                     99999        ",
"         99990          999999                     99999        ",
"         99990          999999                     99999        ",
"        799990          999999                     9999#        ",
"        +99990          999999                     99992        ",
"        299990          999999                     99997        ",
"    oo  299999          999999                     99972   o    ",
"  :o:o  299999          999999                     99992: :o::  ",
" :2  :::299999          999999                     99997o o: o: ",
" o   o: 799999          99999999999999             99997  :o  +:",
"::   :   79999          9999999999999999           99999  o:   o",
":    o   99990          99999999999999999          99999  :o   :",
"o:   :   99990          999999999999999997         99999  o:   o",
" :   :::299990          999999999999999999         99972:::o  : ",
" o:  o :299990          999999      799999         99992: o: :o ",
"  o:::  299990          999999       999999        99997o o:::  ",
"        299990          999999       999999        99992        ",
"        299990          999999       799999        99992        ",
"        799990          999999      #99999         99997        ",
"         99999          999999999999999999         99999        ",
"         99999          999999999999999999         99999        ",
"         99990          99999999999999999          99999        ",
"         99999          9999999999999999           99999        ",
"         99999          99999999999999             99999        ",
"         99999                                     99999        ",
"         99997:o                                o:299999        ",
"         99972  :                              :  299999        ",
"         99997   :o                           :    99999        ",
"         99999    o                          oo    9999#        ",
"        779999   27                           22  999972        ",
"        +79999999779999999999999999999999999999999999977        ",
"        79999999999999999999999999999999999999999999999#        ",
"         99999999999999999999999999999999999999999999997        ",
"         99999999999999999999999999999999999999999999999        ",
"         99777779999999977777779997777779999999999777999        ",
"                           ::o    o:o                           ",
"                             :    :                             ",
"                             ::   :                             ",
"                           o:oo::oo::                           ",
"                           :        o                           ",
"                            :      o:                           ",
"                             :    2:                            ",
"                              ::o:o                             "
};
