/* XPM */
static char *be4da7bbaf524c18c60412013dc7d656qdrh5gDZojFIrviZ[] = {
/* columns rows colors chars-per-pixel */
"128 128 35 1 ",
"  c None",
". c #9F0909",
"X c #9F0A0A",
"o c #9F0B0B",
"O c #9F0C0C",
"+ c #9C0F0F",
"@ c #9F0E0E",
"# c #9F0F0F",
"$ c #9F1010",
"% c #9E1212",
"& c #9F1212",
"* c #9F1313",
"= c #9F1414",
"- c #9F1515",
"; c #A00909",
": c #A00A0A",
"> c #A10A0A",
", c #A00B0B",
"< c #A00C0C",
"1 c #A00D0D",
"2 c #A00E0E",
"3 c #A00F0F",
"4 c #A01010",
"5 c #A11010",
"6 c #A01111",
"7 c #A01212",
"8 c #A01313",
"9 c #A11313",
"0 c #A01413",
"q c #A01414",
"w c #A11414",
"e c #A01515",
"r c #A11515",
"t c #A21616",
"y c #A51818",
/* pixels */
"                                                             >>X>X>                                                             ",
"                                                           >>XX>X>X>>                                                           ",
"                                                         X>XX>X   >XX>>                                                         ",
"                                                        O>X>        X>X>                                                        ",
"                                                        >XO          X>X                                                        ",
"                                                       >X>            XX>                                                       ",
"                                                       >>              >X                                                       ",
"                                                      X>X              X>X                                                      ",
"                                                      >XX               X3                                                      ",
"                                                      X>>XX>X>>X>X>>>X>>X>                                                      ",
"                                                      X>X>>X>XX>X>>XX>>X>>                                                      ",
"                                                          X>        >X                                                          ",
"                                                          .>        >X                                                          ",
"                                                          >X        X>                                                          ",
"                                                         >X>        >X>                                                         ",
"                                                    >>>X>X>X        X>X>X>X>                                                    ",
"                808888888888888888888888888888888888888888888q88q8q88888888888888888888888888888888888888888qqq                 ",
"                8qqqqqqqq8qq8qqqqqqqqqqqqqqqqqqqq88q888q888qqqqqqqqq8q88qq8888qqqqqqqqqqqqqqqqqqqqqq8q8qqqqqqqq                 ",
"                8qqqqqqqqqqqqqqqqqqqqqqqqqqqqqqqqqqq8qqq8qqqqqqqqqqqqq8qqqqq8qqqqqqqqqqqqqqqqqqqqqqqqqqqqqqqqqq                 ",
"                8qqqqqqqqqqqqqqqqqqqqqqqqqqqqqqqqqqqqqqqqqqqqqqqqqqqqqqqqqqq8qqqqqqqqqqqqqqqqqqqqqqqqqqqqqqqqqq                 ",
"                8qqqqqqqqqqqqqqqqqqqqqqqqqqqqqqqqqqqqqqqqqqqqqqqqqqqqqqqqqqqqqqqqqqqqqqqqqqqqqqqqqqqqqqqqqqqqqq                 ",
"                8qqqqqqqqqqqqqqqqqqqqqqqqqqqqqqqqqqqqqqqqqqqqqqqqqqqqqqqqqqqqqqqqqqqqqqqqqqqqqqqqqqqqqqqqqqqqqq                 ",
"                88qqqqqqqqqqqqqqqqqqqqqqqqqqqqqqqqqqqqqqqqqqqqqqqqqqqqqqqqqqqqqqqqqqqqqqqqqqqqqqqqqqqqqqqqqqqqq&                ",
"                88qqqqqqqqqqqqqqqqqqqqqqqqqqqqqqqqqqqqqqqqqqqqqqqqqqqqqqqqqqqqqqqqqqqqqqqqqqqqqqqqqqqqqqqqqqqqqO                ",
"                8qqqqqqqqqqqqqqq8qqqqqqqqqq8qqq8qqqqqqqqqqqqqqqqqqqqqqqqqqqqqqqqqqqqqqqqqqqq888qqqqqqqqqqqqqqqq3                ",
"                3qqqqqqqqqqqqqqq88qqqqqqqqq8qqq8qq88qqqqqqqqqq88qqqq88qqqqqq88qqqqqq88qqqqqq88qqqqqqqqqqqqqqqqq3                ",
"                3qqqqqqqqqqqqqqq888=qqqqqtqtqtqtqt8ttqqtqqqqqt8tqqqqqttqtqqtqttqtqqtqttqtqqt88888qqqqqqqqqqqqqq&                ",
"                8qqqqqqqqqq      X>>                                                        X>;      qqqqqqqqqt&                ",
"                888qqqqqqqq       >X>                                                      >X>       qqqqqqqqqqO                ",
"                88qqqqqqqqq        >>3                                                    X>>        qqqqqqqqqq&                ",
"                8qqqqqqqqqq        X>>                                                    >>X        qqqqqqqqqq                 ",
"                8qqqqqqqqqq       >>X                                                      >>X       qqqqqqqqqq                 ",
"                8qqqqqqqqq8      >XX                                                        X>>      8qqqqqqqqq                 ",
"                8qqqqqqqqq=>    >XX                                                          OXX    >=qqqqqqqqq                 ",
"                8qqqqqqqqq8>X  >>X                                                            X>>  X>8qqqqqqqqq                 ",
"                8qqqqqqqqqqO>X>XX                                                              3>>>>Oqqqqqqqqqq                 ",
"                8qqqqqqqqqq >X>X                                                                O>>X qqqqqqqqqq                 ",
"                8qqqqqqqqqq  >X                                                                  OX  qqqqqqqqqq                 ",
"                8qqqqqqqqqq                                                                          qqqqqqqqqq                 ",
"                8qqqqqqqqqq                                                                          qqqqqqqqqq                 ",
"                8qqqqqqqqqq                                                                          qqqqqqqqqq                 ",
"                8qqqqqqqqqq                                                                          qqqqqqqqqq                 ",
"                8qqqqqqqqqq                                                                          qqqqqqqqqq                 ",
"                8qqqqqqqqqq                     qqqqqqqqqqq                                          qqqqqqqqqq                 ",
"                8qqqqqqqqqq                     qqqqqqqqqqq                                          qqqqqqqqqq                 ",
"                8qqqqqqqqqq                     qqqqqqqqqqq                                          qqqqqqqqqq                 ",
"                8qqqqqqqqqq                     qqqqqqqqqqq                                          qqqqqqqqqq                 ",
"                8qqqqqqqqqq                     qqqqqqqqqqq                                          qqqqqqqqqq                 ",
"                8qqqqqqqqqq                     qqqqqqqqqqq                                          qqqqqqqqqqO                ",
"                8qqqqqqqqqq                     qqqqqqqqqqq                                          qqqqqqqqqqO                ",
"                3qqqqqqqqqq                     qqqqqqqqqqq                                          qqqqqqqqqq8                ",
"                3qqqqqqqqqq                     qqqqqqqqqqq                                          qqqqqqqqqq3                ",
"               X8qqqqqqqqqq                     qqqqqqqqqqq                                          qqqqqqqqqq3X               ",
"               X8qqqqqqqqqq                     qqqqqqqqqqq                                          qqqqqqqqqq8>               ",
"        XXX    >3qqqqqqqqqq                     qqqqqqqqqqq                                          qqqqqqqqqq3X    XXX        ",
"     >>>>X>    >8qqqqqqqqqq                     qqqqqqqqqqq                                          qqqqqqqqqq3>    >X>X>>     ",
"    >X>>XX>    X3qqqqqqqqqq                     qqqqqqqqqqq                                          qqqqqqqqqq3>    X>X>X>X    ",
"   >X>   >>    >3qqqqqqqqqq                     qqqqqqqqqqq                                          qqqqqqqqqq3XX   >X   X>>   ",
"  >XO    >X>>>>X8qqqqqqqqqq                     qqqqqqqqqqqqqqqqqqqqq                                qqqqqqqqqq3>X>X>>X    X>X  ",
" >X>     X>XX>X>8qqqqqqqqqq                     qqqqqqqqqqqqqqqqqqqqqqqqqqq                          qqqqqqqqqq8.>>X>X>     X>3 ",
" >X      >X     88qqqqqqqqq                     qqqqqqqqqqqqqqqqqqqqqqqqqqqqq                        qqqqqqqqq88     >X      >X ",
" X>      X>     88qqqqqqqqq                     qqqqqqqqqqqqqqqqqqqqqqqqqqqqqqq                      qqqqqqqqq8      X>      X>3",
">X       X>     8qqqqqqqqqq                     qqqqqqqqqqqqqqqqqqqqqqqqqqqqqqqq                     qqqqqqqqqq      >>       X>",
"X>       >X     88qqqqqqqqq                     qqqqqqqqqqqqqqqqqqqqqqqqqqqqqqqqq                    qqqqqqqqqq      >X       >X",
">X       X>     8qqqqqqqqqq                     qqqqqqqqqqqqqqqqqqqqqqqqqqqqqqqqq=                   qqqqqqqqqq      >X       >X",
"X>       >X     8qqqqqqqqqq                     qqqqqqqqqqqqqqqqqqqqqqqqqqqqqqqqqq                   qqqqqqqqqq      X>       X>",
">XX      >X     8qqqqqqqqqq                     qqqqqqqqqqqqqqqqqqqqqqqqqqqqqqqqqqq                  qqqqqqqqqq      >>      X>X",
" >>      X>     8qqqqqqqqqq                     qqqqqqqqqqqqqqqqqqqqqqqqqqqqqqqqqqqq                 qqqqqqqqqq8     >X      X> ",
" >X>     X>X>X>X8qqqqqqqqqq                     qqqqqqqqqqqqqqqqqqqqqqqqqqqqqqqqqqqq                 qqqqqqqqqq3>>>X>XX     X>X ",
"  >X     >X>X>X>3qqqqqqqqqq                     qqqqqqqqqqq            qqqqqqqqqqqqq                 qqqqqqqqqq3>XX>X>>     >X  ",
"   >X3   >>    >8qqqqqqqqqq                     qqqqqqqqqqq              qqqqqqqqqqqq                qqqqqqqqqq3XX   X>   X>>X  ",
"   X>X>> X>    X3qqqqqqqqqq                     qqqqqqqqqqq               qqqqqqqqqq=                qqqqqqqqqq3;    >X  >>XX   ",
"     >X>>X>    >88qqqqqqqqq                     qqqqqqqqqqq               qqqqqqqqqqq                qqqqqqqqqq3>    X>X>X>     ",
"       XX>X    >8qqqqqqqqqq                     qqqqqqqqqqq               y=qqqqqqqqq                qqqqqqqqqq8X    >X>>       ",
"               X3qqqqqqqqqq                     qqqqqqqqqqq                &qqqqqqqqq                qqqqqqqqq83>               ",
"               X3qqqqqqqqqq                     qqqqqqqqqqq               &qqqqqqqqqq                qqqqqqqqqq3X               ",
"                8qqqqqqqqqq                     qqqqqqqqqqq               qqqqqqqqqqq                qqqqqqqqqq8                ",
"                8qqqqqqqqqq                     qqqqqqqqqqq              qqqqqqqqqqqq                qqqqqqqqqq8                ",
"                38qqqqqqqqq                     qqqqqqqqqqq             &qqqqqqqqqqq=                qqqqqqqqqqO                ",
"                8qqqqqqqqqq                     qqqqqqqqqqq           qqqqqqqqqqqqqq                 qqqqqqqqqq&                ",
"                8qqqqqqqqqq                     qqqqqqqqqqqqqqqqqqqqqqqqqqqqqqqqqqqq                 qqqqqqqqqq                 ",
"                8qqqqqqqqqq                     qqqqqqqqqqqqqqqqqqqqqqqqqqqqqqqqqqq                  qqqqqqqqqq                 ",
"                8qqqqqqqqqq                     qqqqqqqqqqqqqqqqqqqqqqqqqqqqqqqqqqq                  qqqqqqqqqq                 ",
"                8qqqqqqqqqq                     qqqqqqqqqqqqqqqqqqqqqqqqqqqqqqqqqq                   qqqqqqqqqq                 ",
"                8qqqqqqqqqq                     qqqqqqqqqqqqqqqqqqqqqqqqqqqqqqqqq                    qqqqqqqqqq                 ",
"                8qqqqqqqqqq                     qqqqqqqqqqqqqqqqqqqqqqqqqqqqqqqqq                    qqqqqqqqqq                 ",
"                8qqqqqqqqqq                     qqqqqqqqqqqqqqqqqqqqqqqqqqqqqqq                      qqqqqqqqqq                 ",
"                8qqqqqqqqqq                     qqqqqqqqqqqqqqqqqqqqqqqqqqqqqq                       qqqqqqqqqq                 ",
"                8qqqqqqqqqq                     qqqqqqqqqqqqqqqqqqqqqqqqqqqq                         qqqqqqqqqq                 ",
"                8qqqqqqqqqq                     qqqqqqqqqqqqqqqqqqqqqqqqqq                           qqqqqqqqqq                 ",
"                8qqqqqqqqqq  >                                                                    3  qqqqqqqqqq                 ",
"                8qqqqqqqqqq >X>                                                                  >>X qqqqqqqqqq                 ",
"                8qqqqqqqqqq>X>XX                                                                X>>X3qqqqqqqqqq                 ",
"                8qqqqqqqqq8O>  >>                                                              X>X >>&qqqqqqqqq                 ",
"                8qqqqqqqqq8>   OX>                                                            >>X   >8qqqqqqqqq                 ",
"                8qqqqqqqqq8     XX>                                                          >>X     8qqqqqqqqq                 ",
"                qqqqqqqqqqq      >XX                                                        X>>      qqqqqqqqqq                 ",
"                8qqqqqqqqqq        >>                                                      >>X       qqqqqqqqqq                 ",
"                8qqqqqqqqqq        XX>                                                    >XX        qqqqqqqqqq                 ",
"                8qqqqqqqqqq       >>>                                                      >X>       qqqqqqqqqq&                ",
"                3qqqqqqqqqq      3>3                                                        3>O      qqqqqqqqqq3                ",
"                8qqqqqqqqqqqqqqqqq=qqqqqqqqqqqqqqqqqqqqqqqqqqqqqqqqqqqqqqqqqqqqqqqqqqqqqqqqqqqqqqqqqqqqqqqqqqqq3                ",
"                3qqqqqqqqqqqqqqqqqqqqqqqqqqqqqqqqqqqqqqqqqqqqqqqqqqqqqqqqqqqqqqqqqqqqqqqqqqqqqqqqqqqqqqqqqqqqqq3                ",
"                38qqqqqqqqqqqqqqqqqqqqqqqqqqqqqqqqqqqqqqqqqqqqqqqqqqqqqqqqqqqqqqqqqqqqqqqqqqqqqqqqqqqqqqqqqqqq88                ",
"                8qqqqqqqqqqqqqqqqqqqqqqqqqqqqqqqqqqqqqqqqqqqqqqqqqqqqqqqqqqqqqqqqqqqqqqqqqqqqqqqqqqqqqqqqqqqqqq&                ",
"                8qqqqqqqqqqqqqqqqqqqqqqqqqqqqqqqqqqqqqqqqqqqqqqqqqqqqqqqqqqqqqqqqqqqqqqqqqqqqqqqqqqqqqqqqqqqqqqO                ",
"                88qqqqqqqqqqqqqqqqqqqqqqqqqqqqqqqqqqqqqqqqqqqqqqqqqqqqqqqqqqqqqqqqqqqqqqqqqqqqqqqqqqqqqqqqqqqqq                 ",
"                88qqqqqqqqqqqqqqqqqqqqqqqqqqqqqqqqqqqqqqqqqqqqqqqqqqqqqqqqqqqqqqqqqqqqqqqqqqqqqqqqqqqqqqqqqqqqq                 ",
"                8qqqqqqqqqqqqqqqqqqqqqqqqqqqqqqqqqqqqqqqqqqqqqqqqqqqqqqqqqqqqqqqqqqqqqqqqqqqqqqqqqqqqqqqqqqqqqq                 ",
"                8qqqqqqqqqqqqqqqqqqqqqqqqqqqqqqqqqqqqqqqqqqqqqqqqqqqqqqqqqqqqqqqqqqqqqqqqqqqqqqqqqq8qqqqqqqqqqq                 ",
"                8qqqqqqqqqqq8qqqqqqqqqqqqqqqqqqqq8qqq88qq=q&qqqqqqqqqqqqqqq&qq88qqqqqqqqqqqqqqqqqqq8q&q=qqqqqqqq                ",
"                      3O>3X>33                   3>O33>O3>3>3       3X>3O>3>333                    33>3>3X                      ",
"                                                    X>X>X>>X        >X>>X>>X                                                    ",
"                                                          X>        X>X                                                         ",
"                                                          >X        >X                                                          ",
"                                                          X>        X>                                                          ",
"                                                          >X        >X                                                          ",
"                                                      >X>XX>X>>XX>>XX>>X>>                                                      ",
"                                                      >XX>>X>XX>>>X>>>X>X>                                                      ",
"                                                      X>                >X                                                      ",
"                                                      X>X               XX                                                      ",
"                                                       X>              >>                                                       ",
"                                                       X>X            XXX                                                       ",
"                                                        X>            >X                                                        ",
"                                                         >X>        O>X>                                                        ",
"                                                         X>X>>    X>X>X                                                         ",
"                                                           >X>X>X>>X>                                                           ",
"                                                             X>X>X>                                                             "
};
