/* XPM */
static char *c16c8eef90fc4e5e8bb35646043eb8aa2azMvW8rDg6LsFdL[] = {
/* columns rows colors chars-per-pixel */
"32 32 15 1 ",
"  c None",
". c #9F0909",
"X c #9F0A0A",
"o c #9F0B0B",
"O c #9F1313",
"+ c #A00909",
"@ c #A00A0A",
"# c #A00B0B",
"$ c #A01111",
"% c #A21111",
"& c #A01212",
"* c #A01313",
"= c #A01414",
"- c #A11414",
"; c #A01515",
/* pixels */
"               @@               ",
"              @                 ",
"              @@@@              ",
"              @  @              ",
"    ==*=====***==***=====*==    ",
"    ========================    ",
"    *===**-========----*-==*    ",
"    ===                @ ===    ",
"    ==*                  *==    ",
"    ==*                  *==    ",
"    ===                  ===    ",
"    ===     ===          ===    ",
"    *==     ===          ==*    ",
"    *==     ===          ==*    ",
" @@@*==     ===          ===@@@ ",
"@   **=     =======;     ===   @",
"@   ===     ========-    ===    ",
"  @@*==     ===   -==    ===@@  ",
"    **=     ===    ==    ===    ",
"    *==     ===   ===    ===    ",
"    ===     =========    ===    ",
"    ===     ========     ===    ",
"    ===     ======       ===    ",
"    ==*#                @*==    ",
"    ===                @ ===    ",
"    *===**=============*===*    ",
"    =======================*    ",
"    =**=======*===*======**=    ",
"              @  @              ",
"              @@@@              ",
"                                ",
"                                "
};
